<?xml version="1.0" encoding="UTF-8" standalone="no"?>
<!DOCTYPE svg PUBLIC "-//W3C//DTD SVG 1.1//EN" "http://www.w3.org/Graphics/SVG/1.1/DTD/svg11.dtd">
<svg width="100%" height="100%" viewBox="0 0 669 337" version="1.1" xmlns="http://www.w3.org/2000/svg" xmlns:xlink="http://www.w3.org/1999/xlink" xml:space="preserve" xmlns:serif="http://www.serif.com/" style="fill-rule:evenodd;clip-rule:evenodd;stroke-linejoin:round;stroke-miterlimit:2;">
    <g transform="matrix(6.9013,0,0,6.9013,-10.2398,-6746.55)">
        <g id="SvgjsG8680">
            <path d="M36.792,981.424C34.534,981.424 32.716,983.242 32.716,985.5C32.716,987.758 34.534,989.576 36.792,989.576L54.324,989.576C56.582,989.576 58.401,987.758 58.401,985.5C58.401,983.242 56.582,981.424 54.324,981.424L36.792,981.424Z" style="fill:rgb(246,68,115);fill-rule:nonzero;"/>
            <path d="M22.024,992.666C19.766,992.666 17.948,994.484 17.948,996.742C17.948,999 19.766,1000.82 22.024,1000.82L85.972,1000.82C88.23,1000.82 90.048,999 90.048,996.742C90.048,994.484 88.23,992.666 85.972,992.666L22.024,992.666Z" style="fill:rgb(246,68,115);fill-rule:nonzero;"/>
            <path d="M9.889,1003.91C7.631,1003.91 5.812,1005.72 5.812,1007.98C5.812,1010.24 7.631,1012.06 9.889,1012.06L74.174,1012.06C76.432,1012.06 78.248,1010.24 78.248,1007.98C78.248,1005.72 76.432,1003.91 74.174,1003.91L9.889,1003.91Z" style="fill:rgb(246,68,115);fill-rule:nonzero;"/>
            <path d="M48.643,1015.15C46.385,1015.15 44.567,1016.97 44.567,1019.22C44.567,1021.48 46.385,1023.3 48.643,1023.3L90.111,1023.3C92.369,1023.3 94.188,1021.48 94.188,1019.22C94.188,1016.97 92.369,1015.15 90.111,1015.15L48.643,1015.15Z" style="fill:rgb(246,68,115);fill-rule:nonzero;"/>
        </g>
    </g>
</svg>
